<svg width="288" height="274" viewBox="0 0 288 274" fill="none" xmlns="http://www.w3.org/2000/svg">
<path d="M17.6785 48.8295C6.50355 35.1685 0.570567 17.6031 0 0.051239C6.6782 19.8731 19.3014 37.8709 36.4606 49.9698C53.3593 61.9316 71.8794 71.3161 89.1003 82.7567C100.077 90.2191 110.743 98.6366 118.561 109.508C113.654 99.9998 111.908 89.228 111.735 78.6294C116.466 90.8262 123.566 103.397 135.992 109.062C129.141 102.802 129.115 90.3803 137.057 85.0388C142.396 81.0967 150.487 83.2644 153.72 88.8935C157.857 95.1403 156.433 103.892 151.105 108.999C163.519 103.397 170.557 90.8021 175.289 78.667C175.152 89.228 173.382 99.9757 168.525 109.446C176.155 98.8595 186.5 90.5912 197.18 83.2779C215.565 70.9184 235.56 61.1016 253.374 47.8986C269.27 35.8991 280.543 18.6078 287.271 4.57764e-05C286.219 18.174 280.221 36.4082 268.179 50.2801C252.037 69.1334 229.317 80.1538 209.147 93.9262C193.921 104.463 177.457 113.995 165.626 128.56C158.317 137.586 153.088 148.493 151.391 160.033C150.189 174.276 150.338 189.327 143.524 202.318C136.697 189.302 136.871 174.228 135.644 159.961C133.662 146.684 127.071 134.337 117.966 124.558C106.011 111.752 90.7352 102.851 76.4515 92.9592C56.1835 79.2861 33.4241 68.1061 17.6785 48.8295Z" fill="#031166"/>
<path d="M0.0993652 30.5199C18.9552 66.779 50.5457 95.3015 86.7835 113.599C66.7263 111.727 46.6932 104.487 31.8148 90.5791C14.7429 74.8981 5.22845 52.7595 0.0993652 30.5199" fill="#031166"/>
<path d="M286.899 30.5817C281.771 53.0804 272.007 75.469 254.589 91.1621C239.772 104.698 220.037 111.752 200.265 113.599C236.477 95.3135 268.069 66.8287 286.899 30.5817" fill="#031166"/>
<path d="M124.853 72.9384C123.119 69.8278 126.762 67.7461 128.905 66.3196C130.354 72.717 137.973 74.1043 143.536 74.1796C149.075 74.0923 156.656 72.7411 158.143 66.3572C160.707 67.6964 164.498 70.7572 161.574 73.7458C156.012 78.5179 148.021 78.7152 141.046 78.6294C135.434 78.1082 128.707 77.6005 124.853 72.9384Z" fill="#031166"/>
<path d="M7.595 68.7372C12.9333 80.452 21.3082 90.5791 31.3059 98.6109C49.2088 113.004 70.6164 122.078 92.0239 129.849C73.1064 132.552 52.8625 128.833 37.266 117.442C21.3217 106.037 11.187 87.815 7.595 68.7372" fill="#031166"/>
<path d="M253.077 100.718C264.203 92.3024 273.656 81.4929 279.455 68.7372C275.849 87.7894 265.752 106.013 249.82 117.404C234.198 128.87 213.916 132.502 194.962 129.887C215.342 122.461 235.673 113.896 253.077 100.718Z" fill="#031166"/>
<path d="M22.3123 113.301C30.1046 121.631 39.4956 128.45 49.8893 133.184C66.5893 141.105 85.2223 143.745 101.998 151.468C113.903 157.06 125.078 166.628 128.743 179.682C123.59 171.661 116.156 165.203 107.559 161.112C86.9069 151.096 62.2536 151.977 42.8151 139.085C33.4 132.999 26.5622 123.577 22.3123 113.301" fill="#031166"/>
<path d="M238 132.787C248.073 128.09 257.166 121.396 264.761 113.277C260.189 124.433 252.445 134.474 241.916 140.559C222.231 152.262 198.035 151.444 177.865 161.943C169.949 165.995 163.148 172.158 158.353 179.644C162.131 166.071 174.024 156.328 186.488 150.798C203.188 143.498 221.549 140.77 238 132.787" fill="#031166"/>
<path d="M16.1657 251C15.4297 251 14.9017 250.696 14.5817 250.088C14.2617 249.48 14.2297 248.888 14.4857 248.312L28.5977 214.808C28.9497 213.944 29.5577 213.512 30.4217 213.512C31.2537 213.512 31.8457 213.944 32.1977 214.808L46.3577 248.36C46.6457 248.968 46.5977 249.56 46.2137 250.136C45.8617 250.712 45.3497 251 44.6777 251C44.2937 251 43.9417 250.904 43.6217 250.712C43.3337 250.52 43.0937 250.232 42.9017 249.848L29.7017 217.832H31.1897L17.8937 249.848C17.7337 250.232 17.4937 250.52 17.1737 250.712C16.8857 250.904 16.5497 251 16.1657 251ZM19.3337 242.072L20.7737 238.856H40.2617L41.7017 242.072H19.3337ZM74.0117 251C73.4677 251 73.0197 250.824 72.6677 250.472C72.3157 250.12 72.1397 249.688 72.1397 249.176V236.696C72.1397 234.712 71.7557 233.08 70.9877 231.8C70.2517 230.52 69.2277 229.56 67.9157 228.92C66.6357 228.28 65.1797 227.96 63.5477 227.96C61.9797 227.96 60.5557 228.264 59.2757 228.872C58.0277 229.48 57.0357 230.312 56.2997 231.368C55.5637 232.424 55.1957 233.624 55.1957 234.968H52.5557C52.6197 232.952 53.1637 231.16 54.1877 229.592C55.2117 227.992 56.5717 226.744 58.2677 225.848C59.9637 224.92 61.8517 224.456 63.9317 224.456C66.2037 224.456 68.2357 224.936 70.0277 225.896C71.8197 226.824 73.2277 228.2 74.2517 230.024C75.3077 231.848 75.8357 234.072 75.8357 236.696V249.176C75.8357 249.688 75.6597 250.12 75.3077 250.472C74.9557 250.824 74.5237 251 74.0117 251ZM53.3717 251C52.7957 251 52.3317 250.84 51.9797 250.52C51.6597 250.168 51.4997 249.72 51.4997 249.176V226.616C51.4997 226.04 51.6597 225.592 51.9797 225.272C52.3317 224.92 52.7957 224.744 53.3717 224.744C53.9157 224.744 54.3477 224.92 54.6677 225.272C55.0197 225.592 55.1957 226.04 55.1957 226.616V249.176C55.1957 249.72 55.0197 250.168 54.6677 250.52C54.3477 250.84 53.9157 251 53.3717 251ZM95.5521 251.24C93.0241 251.24 90.7841 250.68 88.8321 249.56C86.8801 248.408 85.3441 246.824 84.2241 244.808C83.1361 242.792 82.5921 240.488 82.5921 237.896C82.5921 235.272 83.1681 232.952 84.3201 230.936C85.4721 228.92 87.0561 227.352 89.0721 226.232C91.0881 225.08 93.3761 224.504 95.9361 224.504C98.5281 224.504 100.816 225.08 102.8 226.232C104.816 227.352 106.384 228.92 107.504 230.936C108.656 232.952 109.248 235.272 109.28 237.896L107.12 239.048C107.12 241.416 106.624 243.528 105.632 245.384C104.64 247.208 103.264 248.648 101.504 249.704C99.7761 250.728 97.7921 251.24 95.5521 251.24ZM96.0321 261.368C93.5041 261.368 91.2801 260.888 89.3601 259.928C87.4401 259 85.8561 257.72 84.6081 256.088C84.2561 255.704 84.0961 255.288 84.1281 254.84C84.1921 254.392 84.4321 254.024 84.8481 253.736C85.2641 253.448 85.7281 253.352 86.2401 253.448C86.7521 253.544 87.1521 253.784 87.4401 254.168C88.3681 255.32 89.5521 256.248 90.9921 256.952C92.4641 257.656 94.1601 258.008 96.0801 258.008C97.8721 258.008 99.4881 257.576 100.928 256.712C102.368 255.848 103.504 254.632 104.336 253.064C105.2 251.496 105.632 249.656 105.632 247.544V240.248L107.024 237.464L109.28 237.896V247.688C109.28 250.28 108.704 252.6 107.552 254.648C106.4 256.728 104.832 258.36 102.848 259.544C100.864 260.76 98.5921 261.368 96.0321 261.368ZM95.9361 247.88C97.8241 247.88 99.4881 247.464 100.928 246.632C102.4 245.768 103.552 244.584 104.384 243.08C105.216 241.576 105.632 239.848 105.632 237.896C105.632 235.944 105.216 234.216 104.384 232.712C103.552 231.176 102.4 229.992 100.928 229.16C99.4881 228.296 97.8241 227.864 95.9361 227.864C94.0481 227.864 92.3681 228.296 90.8961 229.16C89.4241 229.992 88.2721 231.176 87.4401 232.712C86.6081 234.216 86.1921 235.944 86.1921 237.896C86.1921 239.848 86.6081 241.576 87.4401 243.08C88.2721 244.584 89.4241 245.768 90.8961 246.632C92.3681 247.464 94.0481 247.88 95.9361 247.88ZM128.372 251.24C125.78 251.24 123.476 250.68 121.46 249.56C119.476 248.408 117.908 246.824 116.756 244.808C115.636 242.792 115.076 240.488 115.076 237.896C115.076 235.272 115.604 232.968 116.66 230.984C117.748 228.968 119.236 227.384 121.124 226.232C123.012 225.08 125.188 224.504 127.652 224.504C130.084 224.504 132.196 225.064 133.988 226.184C135.812 227.272 137.22 228.792 138.212 230.744C139.204 232.696 139.7 234.92 139.7 237.416C139.7 237.928 139.54 238.344 139.22 238.664C138.9 238.952 138.484 239.096 137.972 239.096H117.572V236.024H138.356L136.292 237.512C136.324 235.656 135.988 233.992 135.284 232.52C134.58 231.048 133.572 229.896 132.26 229.064C130.98 228.232 129.444 227.816 127.652 227.816C125.828 227.816 124.228 228.248 122.852 229.112C121.476 229.976 120.404 231.176 119.636 232.712C118.9 234.216 118.532 235.944 118.532 237.896C118.532 239.848 118.948 241.576 119.78 243.08C120.644 244.584 121.812 245.768 123.284 246.632C124.756 247.496 126.452 247.928 128.372 247.928C129.524 247.928 130.676 247.736 131.828 247.352C133.012 246.936 133.956 246.424 134.66 245.816C135.012 245.528 135.412 245.384 135.86 245.384C136.308 245.352 136.692 245.464 137.012 245.72C137.428 246.104 137.636 246.52 137.636 246.968C137.668 247.416 137.492 247.8 137.108 248.12C136.052 249.016 134.708 249.768 133.076 250.376C131.444 250.952 129.876 251.24 128.372 251.24ZM151.617 251C150.337 251 149.185 250.648 148.161 249.944C147.169 249.24 146.385 248.264 145.809 247.016C145.265 245.768 144.993 244.328 144.993 242.696V215.336C144.993 214.792 145.153 214.36 145.473 214.04C145.825 213.688 146.273 213.512 146.817 213.512C147.361 213.512 147.793 213.688 148.113 214.04C148.465 214.36 148.641 214.792 148.641 215.336V242.696C148.641 244.072 148.913 245.192 149.457 246.056C150.033 246.92 150.753 247.352 151.617 247.352H152.817C153.297 247.352 153.681 247.528 153.969 247.88C154.257 248.2 154.401 248.632 154.401 249.176C154.401 249.72 154.193 250.168 153.777 250.52C153.393 250.84 152.881 251 152.241 251H151.617ZM171.5 251.48C169.452 251.48 167.548 251.192 165.788 250.616C164.06 250.008 162.556 249.16 161.276 248.072C159.996 246.984 159.02 245.72 158.348 244.28C158.092 243.768 158.076 243.304 158.3 242.888C158.556 242.44 158.972 242.136 159.548 241.976C159.996 241.848 160.428 241.896 160.844 242.12C161.292 242.344 161.628 242.68 161.852 243.128C162.332 244.056 163.036 244.888 163.964 245.624C164.892 246.36 165.996 246.936 167.276 247.352C168.556 247.736 169.964 247.928 171.5 247.928C173.196 247.928 174.7 247.656 176.012 247.112C177.324 246.536 178.348 245.72 179.084 244.664C179.852 243.576 180.236 242.264 180.236 240.728C180.236 238.776 179.516 237.096 178.076 235.688C176.636 234.28 174.38 233.384 171.308 233C167.564 232.552 164.636 231.4 162.524 229.544C160.412 227.656 159.356 225.352 159.356 222.632C159.356 220.68 159.868 218.984 160.892 217.544C161.948 216.104 163.388 215 165.212 214.232C167.036 213.432 169.132 213.032 171.5 213.032C173.26 213.032 174.86 213.32 176.3 213.896C177.74 214.44 178.988 215.176 180.044 216.104C181.132 217 182.012 217.992 182.684 219.08C183.004 219.592 183.1 220.088 182.972 220.568C182.876 221.048 182.604 221.416 182.156 221.672C181.676 221.896 181.18 221.928 180.668 221.768C180.188 221.608 179.82 221.304 179.564 220.856C179.084 220.12 178.476 219.432 177.74 218.792C177.036 218.12 176.172 217.592 175.148 217.208C174.124 216.824 172.892 216.616 171.452 216.584C168.924 216.584 166.892 217.128 165.356 218.216C163.82 219.272 163.052 220.824 163.052 222.872C163.052 223.96 163.34 224.968 163.916 225.896C164.492 226.792 165.436 227.576 166.748 228.248C168.092 228.888 169.884 229.368 172.124 229.688C176.124 230.264 179.084 231.496 181.004 233.384C182.956 235.24 183.932 237.672 183.932 240.68C183.932 242.408 183.612 243.944 182.972 245.288C182.364 246.632 181.484 247.768 180.332 248.696C179.212 249.592 177.884 250.28 176.348 250.76C174.844 251.24 173.228 251.48 171.5 251.48ZM202.849 251.24C200.385 251.24 198.177 250.664 196.225 249.512C194.273 248.328 192.721 246.728 191.569 244.712C190.449 242.696 189.889 240.424 189.889 237.896C189.889 235.336 190.465 233.048 191.617 231.032C192.801 229.016 194.401 227.432 196.417 226.28C198.433 225.096 200.705 224.504 203.233 224.504C205.761 224.504 208.017 225.096 210.001 226.28C212.017 227.432 213.601 229.016 214.753 231.032C215.937 233.048 216.545 235.336 216.577 237.896L215.089 239.048C215.089 241.352 214.545 243.432 213.457 245.288C212.401 247.112 210.945 248.568 209.089 249.656C207.265 250.712 205.185 251.24 202.849 251.24ZM203.233 247.88C205.089 247.88 206.737 247.448 208.177 246.584C209.649 245.72 210.801 244.536 211.633 243.032C212.497 241.496 212.929 239.784 212.929 237.896C212.929 235.976 212.497 234.264 211.633 232.76C210.801 231.256 209.649 230.072 208.177 229.208C206.737 228.312 205.089 227.864 203.233 227.864C201.409 227.864 199.761 228.312 198.289 229.208C196.817 230.072 195.649 231.256 194.785 232.76C193.921 234.264 193.489 235.976 193.489 237.896C193.489 239.784 193.921 241.496 194.785 243.032C195.649 244.536 196.817 245.72 198.289 246.584C199.761 247.448 201.409 247.88 203.233 247.88ZM214.705 251C214.161 251 213.713 250.84 213.361 250.52C213.009 250.168 212.833 249.72 212.833 249.176V240.968L213.745 237.176L216.577 237.896V249.176C216.577 249.72 216.401 250.168 216.049 250.52C215.697 250.84 215.249 251 214.705 251ZM227.029 251C226.549 251 226.133 250.84 225.781 250.52C225.429 250.168 225.253 249.704 225.253 249.128V224.792C225.253 222.552 225.637 220.584 226.405 218.888C227.173 217.192 228.309 215.88 229.813 214.952C231.317 213.992 233.157 213.512 235.333 213.512C235.877 213.512 236.325 213.672 236.677 213.992C237.029 214.312 237.205 214.712 237.205 215.192C237.205 215.672 237.029 216.072 236.677 216.392C236.325 216.712 235.877 216.872 235.333 216.872C233.893 216.872 232.693 217.208 231.733 217.88C230.805 218.52 230.101 219.432 229.621 220.616C229.173 221.768 228.949 223.096 228.949 224.6V249.128C228.949 249.704 228.773 250.168 228.421 250.52C228.101 250.84 227.637 251 227.029 251ZM222.181 228.92C221.669 228.92 221.253 228.776 220.933 228.488C220.645 228.168 220.501 227.784 220.501 227.336C220.501 226.856 220.645 226.472 220.933 226.184C221.253 225.864 221.669 225.704 222.181 225.704H234.709C235.221 225.704 235.621 225.864 235.909 226.184C236.229 226.472 236.389 226.856 236.389 227.336C236.389 227.784 236.229 228.168 235.909 228.488C235.621 228.776 235.221 228.92 234.709 228.92H222.181ZM252.31 251.24C249.718 251.24 247.414 250.68 245.398 249.56C243.414 248.408 241.846 246.824 240.694 244.808C239.574 242.792 239.014 240.488 239.014 237.896C239.014 235.272 239.542 232.968 240.598 230.984C241.686 228.968 243.174 227.384 245.062 226.232C246.95 225.08 249.126 224.504 251.59 224.504C254.022 224.504 256.134 225.064 257.926 226.184C259.75 227.272 261.158 228.792 262.15 230.744C263.142 232.696 263.638 234.92 263.638 237.416C263.638 237.928 263.478 238.344 263.158 238.664C262.838 238.952 262.422 239.096 261.91 239.096H241.51V236.024H262.294L260.23 237.512C260.262 235.656 259.926 233.992 259.222 232.52C258.518 231.048 257.51 229.896 256.198 229.064C254.918 228.232 253.382 227.816 251.59 227.816C249.766 227.816 248.166 228.248 246.79 229.112C245.414 229.976 244.342 231.176 243.574 232.712C242.838 234.216 242.47 235.944 242.47 237.896C242.47 239.848 242.886 241.576 243.718 243.08C244.582 244.584 245.75 245.768 247.222 246.632C248.694 247.496 250.39 247.928 252.31 247.928C253.462 247.928 254.614 247.736 255.766 247.352C256.95 246.936 257.894 246.424 258.598 245.816C258.95 245.528 259.35 245.384 259.798 245.384C260.246 245.352 260.63 245.464 260.95 245.72C261.366 246.104 261.574 246.52 261.574 246.968C261.606 247.416 261.43 247.8 261.046 248.12C259.99 249.016 258.646 249.768 257.014 250.376C255.382 250.952 253.814 251.24 252.31 251.24Z" fill="#031166"/>
</svg>
